<svg width="144" height="126" viewBox="0 0 144 126" fill="none" xmlns="http://www.w3.org/2000/svg">
<path d="M51.5606 35H53.6886L54.3746 32.774H58.0006L58.6866 35H61.0526L57.8046 24.99H54.8506L51.5606 35ZM56.1946 26.838L57.5106 31.164H54.8646L56.1946 26.838ZM66.6068 35.154C68.4268 35.154 69.7988 33.796 69.7988 31.374V31.262C69.7988 28.84 68.3988 27.51 66.6068 27.51C65.5288 27.51 64.6748 28.126 64.2688 28.826V24.36H62.2388V35H64.2688V33.838C64.6468 34.594 65.4728 35.154 66.6068 35.154ZM66.0048 33.572C64.8988 33.572 64.1988 32.858 64.1988 31.388V31.276C64.1988 29.806 64.9268 29.064 65.9908 29.064C67.0128 29.064 67.7408 29.792 67.7408 31.276V31.388C67.7408 32.816 67.1248 33.572 66.0048 33.572ZM74.5548 35.154C76.7528 35.154 78.4188 33.684 78.4188 31.374V31.262C78.4188 28.98 76.7668 27.51 74.5688 27.51C72.3708 27.51 70.7048 29.008 70.7048 31.304V31.416C70.7048 33.698 72.3708 35.154 74.5548 35.154ZM74.5688 33.614C73.4208 33.614 72.7768 32.774 72.7768 31.374V31.262C72.7768 29.862 73.4488 29.05 74.5688 29.05C75.7028 29.05 76.3608 29.89 76.3608 31.29V31.388C76.3608 32.774 75.7028 33.614 74.5688 33.614ZM82.2158 35.154C83.4198 35.154 84.1618 34.594 84.5398 33.852V35H86.5558V27.678H84.5398V31.976C84.5398 33.054 83.8678 33.586 83.0138 33.586C82.1458 33.586 81.7398 33.11 81.7398 32.116V27.678H79.7238V32.396C79.7238 34.314 80.7878 35.154 82.2158 35.154ZM91.0261 35.14C91.5721 35.14 91.9781 35.042 92.2581 34.944V33.376C92.0201 33.474 91.7961 33.516 91.4881 33.516C90.9701 33.516 90.6761 33.236 90.6761 32.648V29.12H92.2161V27.678H90.6761V26.096H88.6601V27.678H87.7221V29.12H88.6601V32.83C88.6601 34.356 89.4861 35.14 91.0261 35.14Z" fill="#636059"/>
<rect x="20" y="46" width="104" height="3" fill="#E3000B"/>
<path d="M55.0858 88H57.3538V84.122H60.6438V82.414H57.3538V79.768H61.5118V77.99H55.0858V88ZM64.5067 88.154C65.6547 88.154 66.2987 87.706 66.7187 87.118V88H68.6927V83.226C68.6927 81.238 67.4187 80.51 65.6267 80.51C63.8347 80.51 62.4627 81.28 62.3367 83.016H64.2547C64.3387 82.386 64.7027 81.98 65.5007 81.98C66.4247 81.98 66.6907 82.456 66.6907 83.324V83.618H65.8647C63.6247 83.618 62.0567 84.262 62.0567 85.97C62.0567 87.51 63.1767 88.154 64.5067 88.154ZM65.1087 86.74C64.3667 86.74 64.0447 86.39 64.0447 85.858C64.0447 85.074 64.7307 84.822 65.9067 84.822H66.6907V85.438C66.6907 86.25 66.0047 86.74 65.1087 86.74ZM73.7531 88.154C75.8811 88.154 77.1411 86.95 77.2531 85.214H75.4191C75.3211 86.152 74.6631 86.628 73.8511 86.628C72.7171 86.628 72.0591 85.872 72.0591 84.402V84.29C72.0591 82.89 72.7591 82.106 73.8091 82.106C74.6351 82.106 75.1531 82.498 75.2931 83.352H77.2111C77.0291 81.252 75.4611 80.51 73.7671 80.51C71.6811 80.51 69.9871 81.952 69.9871 84.318V84.43C69.9871 86.824 71.6111 88.154 73.7531 88.154ZM81.2028 88.14C81.7488 88.14 82.1548 88.042 82.4348 87.944V86.376C82.1968 86.474 81.9728 86.516 81.6648 86.516C81.1468 86.516 80.8528 86.236 80.8528 85.648V82.12H82.3928V80.678H80.8528V79.096H78.8368V80.678H77.8988V82.12H78.8368V85.83C78.8368 87.356 79.6628 88.14 81.2028 88.14ZM86.5208 88.154C88.4528 88.154 89.6008 87.328 89.6008 85.746C89.6008 84.178 88.5928 83.716 86.7588 83.45C85.6948 83.296 85.3448 83.114 85.3448 82.652C85.3448 82.204 85.7228 81.896 86.3808 81.896C87.0808 81.896 87.4168 82.176 87.5288 82.778H89.3908C89.2088 81.098 87.9908 80.51 86.3668 80.51C84.8688 80.51 83.4688 81.266 83.4688 82.792C83.4688 84.22 84.2248 84.78 86.1708 85.074C87.2208 85.228 87.6548 85.438 87.6548 85.942C87.6548 86.446 87.2908 86.74 86.5068 86.74C85.6248 86.74 85.3028 86.362 85.2188 85.704H83.3288C83.3988 87.286 84.5468 88.154 86.5208 88.154Z" fill="#BBB8B1"/>
<rect x="20" y="99" width="104" height="1" fill="#E3000B"/>
<rect x="0.5" y="0.5" width="143" height="125" rx="4.5" stroke="#B9FF61" stroke-dasharray="10 5"/>
</svg>
